<?xml version="1.0" encoding="iso-8859-1"?>
<!-- Generator: Adobe Illustrator 16.0.0, SVG Export Plug-In . SVG Version: 6.00 Build 0)  -->
<!DOCTYPE svg PUBLIC "-//W3C//DTD SVG 1.1//EN" "http://www.w3.org/Graphics/SVG/1.1/DTD/svg11.dtd">
<svg version="1.1" id="Capa_1" xmlns="http://www.w3.org/2000/svg" xmlns:xlink="http://www.w3.org/1999/xlink" x="0px" y="0px"
	 width="209.446px" height="209.446px" viewBox="0 0 209.446 209.446" style="enable-background:new 0 0 209.446 209.446;"
	 xml:space="preserve">
<g>
	<g>
		<path d="M7.576,117.888h194.296c1.578,0,3.021-0.958,3.618-2.425c0.613-1.471,0.276-3.157-0.846-4.275l-40.23-40.234
			c-1.058-1.062-2.621-1.431-4.047-0.936c-1.411,0.487-2.441,1.733-2.625,3.22l-0.598,4.739H51.89l-0.156-4.4
			c-0.046-1.557-1.028-2.945-2.48-3.512c-1.445-0.555-3.102-0.219-4.208,0.869l-40.234,40.23c-1.13,1.126-1.467,2.806-0.84,4.284
			C4.554,116.93,5.995,117.888,7.576,117.888z M44.282,82.813c0.403,1.745,1.961,3.027,3.817,3.027h112.513
			c1.979,0,3.65-1.471,3.896-3.434l0.027-0.229l27.86,27.852H17.052L44.282,82.813z"/>
		<path d="M52.52,64.421h104.429c1.579,0,3.018-0.958,3.631-2.433c0.602-1.477,0.261-3.148-0.857-4.282l-21.62-21.612
			c-1.074-1.074-2.637-1.427-4.063-0.924c-1.423,0.487-2.437,1.731-2.604,3.216l-0.141,0.95H78.087l-0.022-0.597
			c-0.046-1.561-1.028-2.943-2.473-3.509c-1.469-0.571-3.11-0.224-4.218,0.864L49.756,57.706c-1.132,1.134-1.469,2.813-0.84,4.282
			C49.496,63.463,50.932,64.421,52.52,64.421z M72.065,46.506c0.627,0.44,1.399,0.689,2.222,0.689h60.473
			c0.921,0,1.779-0.323,2.452-0.848l10.243,10.231H61.987L72.065,46.506z"/>
		<path d="M205.523,166.654h-37.674V129.35c0-2.164-1.747-3.928-3.927-3.928H45.508c-2.158,0-3.925,1.764-3.925,3.928v37.305H3.925
			c-2.176,0-3.925,1.747-3.925,3.923c0,2.16,1.75,3.924,3.925,3.924h201.598c2.176,0,3.923-1.764,3.923-3.924
			C209.446,168.394,207.699,166.654,205.523,166.654z M49.434,133.272h110.565v33.382H49.434V133.272L49.434,133.272z"/>
	</g>
</g>
<g>
</g>
<g>
</g>
<g>
</g>
<g>
</g>
<g>
</g>
<g>
</g>
<g>
</g>
<g>
</g>
<g>
</g>
<g>
</g>
<g>
</g>
<g>
</g>
<g>
</g>
<g>
</g>
<g>
</g>
</svg>
